<svg width="859" height="288" viewBox="0 0 859 288" fill="none" xmlns="http://www.w3.org/2000/svg">
<path d="M20.8672 54C26.39 54 30.8672 58.4772 30.8672 64V114.896C39.7561 109.834 50.0402 106.941 61 106.941C94.6894 106.941 122 134.265 122 167.971C122 201.676 94.6893 229 61 229C57.8805 229 54.8158 228.764 51.8223 228.312C53.0477 219.263 52.3094 211.295 49.4619 205.243C64.2649 211.715 80.4344 209.179 88.5 198.072C91.7816 193.553 93.2972 188.196 93.2217 182.616C103.711 169.7 108.332 152.691 108.357 152.598C100.631 152.509 89.4637 158.039 84.7988 160.55C82.325 157.436 79.3369 154.547 75.8711 152.027C72.0196 149.228 67.9168 147.13 63.7656 145.722C64.6849 140.768 66.6583 127.964 64.1201 120.444C64.078 120.472 48.1616 130.883 39.252 145.742C34.8451 147.511 31.0254 150.349 28.2002 154.239C20.1349 165.346 22.7201 181.515 33.4453 193.601C26.2702 192.693 17.7241 194.823 8.75879 199.497C3.67667 191.086 0.566842 181.348 0.0703125 170.925C0.0242063 170.439 0 169.946 0 169.448V64C0 58.4772 4.47715 54 10 54H20.8672Z" fill="#F17140"/>
<path d="M136.142 229V108.79H170.791V137.075H171.498V229H136.142ZM171.498 166.302L168.434 137.782C171.263 127.568 175.898 119.789 182.341 114.447C188.783 109.104 196.797 106.433 206.383 106.433C209.368 106.433 211.568 106.747 212.983 107.376V140.374C212.197 140.06 211.097 139.903 209.683 139.903C208.269 139.746 206.54 139.667 204.497 139.667C193.183 139.667 184.855 141.71 179.512 145.796C174.17 149.724 171.498 156.56 171.498 166.302ZM301.345 229C300.402 225.543 299.695 221.85 299.224 217.922C298.909 213.993 298.752 209.436 298.752 204.251H297.809V147.446C297.809 142.574 296.159 138.803 292.86 136.132C289.717 133.303 285.003 131.889 278.717 131.889C272.746 131.889 267.953 132.91 264.339 134.953C260.882 136.996 258.604 139.982 257.504 143.91H223.798C225.369 133.068 230.947 124.111 240.533 117.039C250.118 109.968 263.239 106.433 279.896 106.433C297.181 106.433 310.38 110.283 319.494 117.982C328.608 125.682 333.165 136.76 333.165 151.217V204.251C333.165 208.179 333.401 212.186 333.872 216.272C334.501 220.2 335.444 224.443 336.701 229H301.345ZM259.389 231.357C247.447 231.357 237.94 228.371 230.869 222.4C223.798 216.272 220.262 208.179 220.262 198.122C220.262 186.966 224.426 178.009 232.754 171.252C241.24 164.338 253.025 159.859 268.11 157.817L303.231 152.867V173.373L274.003 177.852C267.717 178.795 263.082 180.523 260.096 183.037C257.111 185.551 255.618 189.008 255.618 193.408C255.618 197.337 257.032 200.322 259.861 202.365C262.689 204.408 266.46 205.429 271.175 205.429C278.56 205.429 284.845 203.465 290.031 199.537C295.217 195.451 297.809 190.737 297.809 185.394L301.109 204.251C297.652 213.208 292.388 219.965 285.317 224.522C278.246 229.079 269.603 231.357 259.389 231.357ZM360.34 229V108.79H394.989V137.075H395.696V229H360.34ZM444.015 229V154.517C444.015 147.917 442.287 142.967 438.83 139.667C435.53 136.367 430.659 134.717 424.216 134.717C418.716 134.717 413.766 135.975 409.367 138.489C405.124 141.003 401.745 144.46 399.231 148.86C396.874 153.26 395.696 158.445 395.696 164.416L392.631 135.425C396.56 126.625 402.295 119.632 409.838 114.447C417.538 109.104 426.966 106.433 438.123 106.433C451.479 106.433 461.693 110.204 468.765 117.747C475.836 125.132 479.371 135.11 479.371 147.681V229H444.015ZM506.275 229V108.79H540.924V137.075H541.631V229H506.275ZM587.122 229V152.631C587.122 146.503 585.472 142.024 582.173 139.196C579.03 136.21 574.551 134.717 568.737 134.717C563.709 134.717 559.073 135.896 554.831 138.253C550.745 140.453 547.524 143.674 545.167 147.917C542.81 152.003 541.631 156.874 541.631 162.531L538.567 135.425C542.495 126.625 548.152 119.632 555.538 114.447C563.08 109.104 572.116 106.433 582.644 106.433C595.215 106.433 604.957 109.968 611.872 117.039C618.943 124.111 622.478 132.989 622.478 143.674V229H587.122ZM667.97 229V152.631C667.97 146.503 666.32 142.024 663.02 139.196C659.877 136.21 655.399 134.717 649.585 134.717C644.556 134.717 639.921 135.896 635.678 138.253C631.592 140.453 628.371 143.674 626.014 147.917C623.657 152.003 622.478 156.874 622.478 162.531L617.057 135.425C620.986 126.625 626.8 119.632 634.499 114.447C642.356 109.104 651.784 106.433 662.784 106.433C675.827 106.433 685.805 110.125 692.719 117.511C699.79 124.739 703.326 134.246 703.326 146.031V229H667.97ZM787.283 231.357C774.084 231.357 762.455 228.764 752.399 223.579C742.499 218.236 734.721 210.851 729.064 201.422C723.564 191.837 720.814 180.837 720.814 168.423C720.814 156.01 723.564 145.167 729.064 135.896C734.721 126.625 742.499 119.397 752.399 114.211C762.455 109.025 774.084 106.433 787.283 106.433C800.64 106.433 812.268 109.025 822.168 114.211C832.224 119.397 840.003 126.625 845.503 135.896C851.002 145.167 853.752 156.01 853.752 168.423C853.752 180.837 850.924 191.837 845.267 201.422C839.767 210.851 831.989 218.236 821.932 223.579C812.032 228.764 800.483 231.357 787.283 231.357ZM787.283 203.544C792.783 203.544 797.733 202.129 802.133 199.301C806.69 196.473 810.304 192.466 812.975 187.28C815.646 181.937 816.982 175.573 816.982 168.188C816.982 157.345 814.075 149.017 808.261 143.203C802.604 137.232 795.611 134.246 787.283 134.246C778.955 134.246 771.884 137.232 766.069 143.203C760.413 149.174 757.584 157.502 757.584 168.188C757.584 175.573 758.92 181.937 761.591 187.28C764.262 192.466 767.798 196.473 772.198 199.301C776.755 202.129 781.783 203.544 787.283 203.544Z" fill="white"/>
</svg>
