<?xml version="1.0" encoding="utf-8"?>
<!-- Generator: Adobe Illustrator 25.0.0, SVG Export Plug-In . SVG Version: 6.00 Build 0)  -->
<svg version="1.1" id="Camada_1" xmlns="http://www.w3.org/2000/svg" xmlns:xlink="http://www.w3.org/1999/xlink" x="0px" y="0px"
	 viewBox="0 0 64 64" style="enable-background:new 0 0 64 64;" xml:space="">
<style type="text/css">
	.st0{fill:#EE7141;}
</style>
<path class="st0" d="M8.3,5.74c-0.57,0-1.1,0.15-1.56,0.42c0,0,0,0,0,0V4.32V4.07V3.59V3.57c0-0.08-0.03-0.14-0.08-0.2
	c-0.05-0.05-0.12-0.08-0.2-0.08H5.47c-0.08,0-0.14,0.03-0.2,0.08c-0.05,0.05-0.08,0.12-0.08,0.2v0.03v0.73v4.55
	c0,0.04,0,0.07,0.01,0.11l0,0C5.21,9.24,5.26,9.5,5.33,9.74c0.03,0.11,0.07,0.22,0.11,0.33c0,0,0,0,0,0c0.24-0.09,0.9-0.36,1-0.4
	c0.03-0.01,0.04-0.02,0.02-0.05C6.32,9.28,6.26,8.94,6.32,8.57c0.06-0.36,0.22-0.66,0.51-0.89c0.13-0.11,0.29-0.19,0.45-0.25
	c0.04-0.01,0.38-0.41,0.55-0.55c0.18-0.14,0.38-0.26,0.59-0.35c0.03-0.01,0.06-0.02,0.09-0.02C8.57,6.52,8.6,6.56,8.6,6.62
	c0,0.21,0,0.41-0.01,0.62c0,0.08-0.01,0.16-0.02,0.23c0,0.03,0,0.05,0.03,0.06c0.22,0.1,0.41,0.24,0.59,0.41
	c0.2,0.19,0.36,0.4,0.47,0.65C9.68,8.62,9.7,8.62,9.72,8.62c0.28-0.02,0.56-0.04,0.84-0.03c0.01,0,0.01,0,0.02,0
	c0.08,0.01,0.12,0.08,0.09,0.15c-0.1,0.23-0.22,0.45-0.38,0.64c-0.13,0.16-0.28,0.3-0.44,0.42C9.83,9.81,9.81,9.84,9.81,9.86
	c-0.15,0.5-0.47,0.83-0.96,0.99c-0.32,0.1-0.64,0.09-0.95,0c-0.1-0.03-0.21-0.07-0.31-0.11c-0.01,0-0.03,0-0.03,0.02c0,0,0,0,0,0
	c-0.14,0.36-0.26,0.67-0.4,1c0,0,0,0,0,0c0.35,0.14,0.74,0.22,1.14,0.22c0.89,0,1.69-0.38,2.25-0.98c0.54-0.56,0.88-1.32,0.88-2.16
	C11.41,7.13,10.02,5.74,8.3,5.74z"/>
</svg>
